<?xml version="1.0" standalone="no"?>
<!DOCTYPE svg PUBLIC "-//W3C//DTD SVG 20010904//EN"
 "http://www.w3.org/TR/2001/REC-SVG-20010904/DTD/svg10.dtd">
<svg version="1.0" xmlns="http://www.w3.org/2000/svg"
 width="700.000000pt" height="700.000000pt" viewBox="0 0 700.000000 700.000000"
 preserveAspectRatio="xMidYMid meet">
<metadata>
Created by potrace 1.11, written by Peter Selinger 2001-2013
</metadata>
<g transform="translate(0.000000,700.000000) scale(0.100000,-0.100000)"
fill="#000000" stroke="none">
<path d="M1170 6985 c-305 -52 -572 -193 -786 -417 -178 -187 -294 -406 -361
-681 -16 -67 -18 -215 -21 -2337 -2 -1607 0 -2288 8 -2345 83 -605 558 -1091
1165 -1190 135 -22 4515 -22 4650 0 356 58 677 252 897 540 135 178 237 425
268 650 8 57 10 740 8 2345 -3 2122 -5 2270 -21 2337 -71 293 -187 504 -387
703 -200 200 -414 318 -700 386 -71 17 -199 19 -2360 20 -1812 2 -2301 -1
-2360 -11z m1437 -2937 c-3 -1923 0 -1828 -63 -2046 -50 -177 -165 -367 -287
-478 -106 -96 -357 -240 -533 -307 l-42 -16 -66 174 c-36 96 -66 178 -66 182
0 5 33 26 73 47 262 142 385 288 440 527 l21 94 3 1788 3 1787 261 0 260 0 -4
-1752z m1443 47 l0 -1705 700 0 700 0 0 -22 c0 -24 -36 -317 -45 -375 l-6 -33
-929 0 -930 0 0 1920 0 1920 255 0 255 0 0 -1705z"/>
</g>
</svg>
